<svg xmlns="http://www.w3.org/2000/svg" viewBox="0 0 100 100" width="100" height="100">
  <circle cx="50" cy="50" r="48" fill="#eef3f8"/>

  <g stroke="#5b8bb0" stroke-width="3" stroke-linecap="round" fill="none">
    <!-- resolved triplet: ((a,b),c) -->
    <path d="M 24 15 L 24 20"/>
    <path d="M 24 20 L 18 26"/><path d="M 24 20 L 31 34"/>
    <path d="M 18 26 L 14 34"/><path d="M 18 26 L 23 34"/>
    <!-- star triplet: all three from one vertex -->
    <path d="M 24 41 L 24 46"/>
    <path d="M 24 46 L 14 60"/><path d="M 24 46 L 24 60"/><path d="M 24 46 L 34 60"/>
    <!-- cherry -->
    <path d="M 24 67 L 24 72"/>
    <path d="M 24 72 L 17 84"/><path d="M 24 72 L 31 84"/>
  </g>

  <path d="M 40 50 L 49 50" stroke="#e0a83e" stroke-width="3.2" stroke-linecap="round" stroke-dasharray="4 3.5"/>
  <path d="M 46 46 L 50.5 50 L 46 54" stroke="#e0a83e" stroke-width="3.2" fill="none" stroke-linecap="round" stroke-linejoin="round"/>

  <g stroke="#5b8bb0" stroke-width="3.2" stroke-linecap="round" fill="none">
    <path d="M 72 28 L 62 42"/><path d="M 72 28 L 82 42"/>
    <path d="M 62 42 L 72 56"/><path d="M 82 42 L 72 56"/>
    <path d="M 62 42 L 60 74"/><path d="M 82 42 L 84 74"/><path d="M 72 56 L 72 74"/>
  </g>
  <g fill="#2f6f9f"><circle cx="72" cy="28" r="4.2"/><circle cx="62" cy="42" r="4.2"/><circle cx="82" cy="42" r="4.2"/><circle cx="72" cy="56" r="4.2"/><circle cx="60" cy="74" r="4.2"/><circle cx="72" cy="74" r="4.2"/><circle cx="84" cy="74" r="4.2"/></g>
</svg>
