<svg xmlns="http://www.w3.org/2000/svg" viewBox="0 0 100 100" width="100" height="100">
  <circle cx="50" cy="50" r="48" fill="#eef3f8"/>
  <g stroke="#5b8bb0" stroke-width="3" stroke-linecap="round" fill="none">
    <path d="M 50 18 L 28 36"/><path d="M 50 18 L 72 36"/>
    <path d="M 28 36 L 20 60"/><path d="M 28 36 L 44 58"/>
    <path d="M 72 36 L 80 60"/><path d="M 72 36 L 56 58"/>
    <path d="M 20 60 L 32 80"/><path d="M 44 58 L 32 80"/>
    <path d="M 56 58 L 68 80"/><path d="M 80 60 L 68 80"/>
  </g>
  <g stroke="#c1273d" stroke-width="3" stroke-linecap="round" fill="none">
    <path d="M 44 58 L 56 58"/>
    <path d="M 20 60 L 28 36"/>
  </g>
  <g fill="#2f6f9f">
    <circle cx="50" cy="18" r="4.4"/><circle cx="28" cy="36" r="4.4"/><circle cx="72" cy="36" r="4.4"/>
    <circle cx="20" cy="60" r="4.4"/><circle cx="44" cy="58" r="4.4"/><circle cx="56" cy="58" r="4.4"/><circle cx="80" cy="60" r="4.4"/>
    <circle cx="32" cy="80" r="4.4"/><circle cx="68" cy="80" r="4.4"/>
  </g>
</svg>
